<?xml version="1.0" encoding="UTF-8" standalone="no"?>
<!-- Created with Inkscape (http://www.inkscape.org/) -->

<svg
   width="1280"
   height="1280"
   viewBox="0 0 338.66664 338.66666"
   version="1.1"
   id="svg1"
   xml:space="preserve"
   inkscape:version="1.3 (0e150ed6c4, 2023-07-21)"
   sodipodi:docname="Edwin Phiri Logo.svg"
   inkscape:export-filename="Logo blue.png"
   inkscape:export-xdpi="200"
   inkscape:export-ydpi="200"
   xmlns:inkscape="http://www.inkscape.org/namespaces/inkscape"
   xmlns:sodipodi="http://sodipodi.sourceforge.net/DTD/sodipodi-0.dtd"
   xmlns="http://www.w3.org/2000/svg"
   xmlns:svg="http://www.w3.org/2000/svg"><sodipodi:namedview
     id="namedview1"
     pagecolor="#ffffff"
     bordercolor="#666666"
     borderopacity="1.0"
     inkscape:showpageshadow="2"
     inkscape:pageopacity="0.0"
     inkscape:pagecheckerboard="0"
     inkscape:deskcolor="#d1d1d1"
     inkscape:document-units="px"
     inkscape:zoom="0.16"
     inkscape:cx="2796.875"
     inkscape:cy="684.375"
     inkscape:window-width="1366"
     inkscape:window-height="745"
     inkscape:window-x="-8"
     inkscape:window-y="-8"
     inkscape:window-maximized="1"
     inkscape:current-layer="layer1"
     showgrid="false"><inkscape:grid
       id="grid3"
       units="px"
       originx="0"
       originy="0"
       spacingx="0.26458331"
       spacingy="0.26458333"
       empcolor="#0099e5"
       empopacity="0.30196078"
       color="#0099e5"
       opacity="0.14901961"
       empspacing="5"
       dotted="false"
       gridanglex="30"
       gridanglez="30"
       visible="false" /></sodipodi:namedview><defs
     id="defs1"><pattern
       id="EMFhbasepattern"
       patternUnits="userSpaceOnUse"
       width="6"
       height="6"
       x="0"
       y="0" /><clipPath
       clipPathUnits="userSpaceOnUse"
       id="clipEmfPath1"><path
         d="M 0,0 L 776.08188,0 L 776.08188,60.869167 L 0,60.869167 z"
         id="path1-4" /></clipPath><pattern
       id="EMFhbasepattern-8"
       patternUnits="userSpaceOnUse"
       width="6"
       height="6"
       x="0"
       y="0" /></defs><g
     inkscape:label="Layer 1"
     inkscape:groupmode="layer"
     id="layer1"><rect
       style="opacity:1;fill:#101c26;fill-opacity:1;stroke:none;stroke-width:4.11662;stroke-linecap:round;stroke-linejoin:round;stroke-miterlimit:4;stroke-dasharray:none;stroke-dashoffset:0;stroke-opacity:1;paint-order:stroke fill markers"
       id="rect36"
       width="942.64014"
       height="338.66666"
       x="380.4509"
       y="-3.2470705e-06"
       inkscape:export-filename="Card.png"
       inkscape:export-xdpi="200"
       inkscape:export-ydpi="200" /><g
       id="g69"
       transform="matrix(2.5615885,0,0,2.5615885,-70.693191,-175.30867)"
       style="fill:#1887e9;fill-opacity:1"><path
         id="path64"
         style="opacity:1;fill:#1887e9;fill-opacity:1;stroke-width:11.8274;stroke-linejoin:bevel;paint-order:stroke fill markers"
         d="m 298.39143,131.58331 a 5.4523811,5.4523811 0 0 1 -5.26214,5.47714 5.4523811,5.4523811 0 0 1 -5.63117,-5.09696 5.4523811,5.4523811 0 0 1 4.92729,-5.78023 5.4523811,5.4523811 0 0 1 5.92416,4.75326" /><path
         style="color:#000000;fill:#1887e9;fill-opacity:1;stroke-width:1.00003;stroke-linejoin:bevel;-inkscape-stroke:none;paint-order:stroke fill markers"
         d="m 246.72168,132.83048 -18.27151,9e-5 6.52592,-5.26845 2.45544,-5.6365 9.29015,-9e-5 z"
         id="path65"
         sodipodi:nodetypes="cccccc" /><path
         id="path66"
         style="color:#000000;fill:#1887e9;fill-opacity:1;stroke-width:0.999978;stroke-linejoin:bevel;-inkscape-stroke:none;paint-order:stroke fill markers"
         d="m 255.5938,100.15992 c -3.01026,5.8e-4 -5.45032,2.44086 -5.4509,5.4513 v 0.86928 4.16908 43.8485 l 6.73697,-1.85214 4.16705,-7.12914 v -34.86722 -4.16908 -0.86928 c -5.8e-4,-3.01125 -2.44205,-5.45186 -5.45312,-5.4513 z" /><path
         style="color:#000000;fill:#1887e9;fill-opacity:1;stroke-linecap:round;stroke-linejoin:round;-inkscape-stroke:none;paint-order:stroke fill markers"
         d="m 237.54492,121.92578 c -9.50089,0 -18.10008,5.75281 -21.72461,14.53516 -3.62453,8.78235 -1.58698,18.92613 5.14844,25.62695 6.73542,6.70082 16.89073,8.68729 25.6543,5.01758 8.76356,-3.66971 14.47276,-12.29807 14.42382,-21.79883 a 5.4524002,5.4524002 0 0 0 -5.48046,-5.42383 5.4524002,5.4524002 0 0 0 -5.42383,5.48047 c 0.0263,5.11662 -3.01282,9.70728 -7.73242,11.68359 -4.71961,1.97632 -10.12265,0.91927 -13.75,-2.68945 -3.62735,-3.60871 -4.71175,-9.0066 -2.75977,-13.73633 1.95198,-4.72972 6.52784,-7.79101 11.64453,-7.79101 a 5.4524002,5.4524002 0 0 0 5.45313,-5.45117 5.4524002,5.4524002 0 0 0 -5.45313,-5.45313 z"
         id="path67" /><path
         style="color:#000000;fill:#1887e9;fill-opacity:1;stroke-linecap:round;stroke-linejoin:round;-inkscape-stroke:none;paint-order:stroke fill markers"
         d="m 291.60156,139.87695 a 5.4524002,5.4524002 0 0 0 -5.42578,5.48047 c 0.0351,6.81881 -5.2173,12.34369 -12.0293,12.65039 -6.812,0.3067 -12.54135,-4.7232 -13.11914,-11.51758 a 5.4524002,5.4524002 0 0 0 -5.89453,-4.9707 5.4524002,5.4524002 0 0 0 -4.9707,5.89453 c 1.06414,12.51344 11.92872,22.05119 24.47461,21.48633 12.54589,-0.56486 22.50999,-11.03922 22.44531,-23.59766 a 5.4524002,5.4524002 0 0 0 -5.48047,-5.42578 z"
         id="path68" /><path
         id="path69"
         style="color:#000000;fill:#1887e9;fill-opacity:1;stroke-width:1.00002;stroke-linecap:round;stroke-linejoin:round;-inkscape-stroke:none;paint-order:stroke fill markers"
         d="m 264.46796,121.9254 v 10.90524 h 2.76076 0.89893 1.70709 c 3.01126,-5.8e-4 5.45207,-2.44212 5.45151,-5.45353 -5.8e-4,-3.0106 -2.44105,-5.45113 -5.45151,-5.45171 h -1.70709 -0.89893 z" /></g><rect
       style="opacity:1;fill:#ffffff;fill-opacity:1;stroke:none;stroke-width:4.20687;stroke-linecap:round;stroke-linejoin:round;stroke-miterlimit:4;stroke-dasharray:none;stroke-dashoffset:0;stroke-opacity:1;paint-order:stroke fill markers"
       id="rect39"
       width="338.66666"
       height="338.66666"
       x="0"
       y="0"
       ry="0" /><path
       style="fill:none;stroke:#355d7e;stroke-width:3.90955;stroke-linecap:round;stroke-linejoin:round;stroke-dasharray:none;stroke-opacity:1"
       d="M 751.87114,47.826291 V 290.84036"
       id="path35" /><text
       xml:space="preserve"
       style="font-style:normal;font-variant:normal;font-weight:normal;font-stretch:normal;font-size:100.862px;line-height:1.25;font-family:Comfortaa;-inkscape-font-specification:Comfortaa;font-variant-ligatures:normal;font-variant-caps:normal;font-variant-numeric:normal;font-variant-east-asian:normal;letter-spacing:0px;fill:#355d7e;fill-opacity:1;stroke-width:9.16924"
       x="799.99365"
       y="145.68118"
       id="text36"><tspan
         sodipodi:role="line"
         style="font-style:normal;font-variant:normal;font-weight:normal;font-stretch:normal;font-size:100.862px;line-height:1.25;font-family:Comfortaa;-inkscape-font-specification:Comfortaa;font-variant-ligatures:normal;font-variant-caps:normal;font-variant-numeric:normal;font-variant-east-asian:normal;letter-spacing:0px;fill:#355d7e;fill-opacity:1;stroke-width:9.16924"
         x="799.99365"
         y="145.68118"
         id="tspan35">Edwin A</tspan><tspan
         sodipodi:role="line"
         style="font-style:normal;font-variant:normal;font-weight:normal;font-stretch:normal;font-size:100.862px;line-height:1.25;font-family:Comfortaa;-inkscape-font-specification:Comfortaa;font-variant-ligatures:normal;font-variant-caps:normal;font-variant-numeric:normal;font-variant-east-asian:normal;letter-spacing:0px;fill:#355d7e;fill-opacity:1;stroke-width:9.16924"
         x="799.99365"
         y="271.75867"
         id="tspan36">Phiri ZM</tspan></text><g
       id="g17"
       transform="matrix(2.5615885,0,0,2.5615885,-486.99576,-195.08594)"><path
         style="font-variation-settings:normal;opacity:1;fill:#355d7e;fill-opacity:1;stroke:none;stroke-width:11.8274;stroke-linecap:butt;stroke-linejoin:bevel;stroke-miterlimit:4;stroke-dasharray:none;stroke-dashoffset:0;stroke-opacity:1;paint-order:stroke fill markers"
         id="path12"
         sodipodi:type="arc"
         sodipodi:cx="292.93912"
         sodipodi:cy="131.61139"
         sodipodi:rx="5.4523811"
         sodipodi:ry="5.4523811"
         sodipodi:start="6.278035"
         sodipodi:end="6.1590917"
         sodipodi:open="true"
         sodipodi:arc-type="arc"
         d="m 298.39143,131.58331 a 5.4523811,5.4523811 0 0 1 -5.26214,5.47714 5.4523811,5.4523811 0 0 1 -5.63117,-5.09696 5.4523811,5.4523811 0 0 1 4.92729,-5.78023 5.4523811,5.4523811 0 0 1 5.92416,4.75326" /><path
         style="color:#000000;fill:#355d7e;fill-opacity:1;stroke-width:1.00003;stroke-linejoin:bevel;-inkscape-stroke:none;paint-order:stroke fill markers"
         d="m 246.72168,132.83048 -18.27151,9e-5 6.52592,-5.26845 2.45544,-5.6365 9.29015,-9e-5 z"
         id="path10"
         sodipodi:nodetypes="cccccc" /><path
         style="color:#000000;fill:#355d7e;fill-opacity:1;stroke-width:0.999978;stroke-linejoin:bevel;-inkscape-stroke:none;paint-order:stroke fill markers"
         d="m 250.14282,106.4805 v 48.01755 l 6.73695,-1.85204 4.1671,-7.12912 V 106.4805 Z"
         id="path9"
         sodipodi:nodetypes="cccccc" /><path
         style="fill:none;stroke:#355d7e;stroke-width:10.9048;stroke-linecap:round;stroke-linejoin:round;stroke-dasharray:none;stroke-opacity:1;paint-order:stroke fill markers"
         id="path2"
         sodipodi:type="arc"
         sodipodi:cx="237.5451"
         sodipodi:cy="145.42751"
         sodipodi:rx="18.049486"
         sodipodi:ry="18.049486"
         sodipodi:start="6.278035"
         sodipodi:end="4.712389"
         sodipodi:arc-type="arc"
         d="m 255.59435,145.33455 a 18.049486,18.049486 0 0 1 -11.07764,16.7417 18.049486,18.049486 0 0 1 -19.70161,-3.85301 18.049486,18.049486 0 0 1 -3.95443,-19.6815 18.049486,18.049486 0 0 1 16.68443,-11.16372"
         sodipodi:open="true" /><path
         id="path8"
         style="color:#000000;fill:#355d7e;fill-opacity:1;stroke-width:0.999965;stroke-linecap:round;stroke-linejoin:round;-inkscape-stroke:none;paint-order:stroke fill markers"
         d="m 255.59381,100.15996 c -3.01026,5.8e-4 -5.45041,2.4409 -5.45099,5.45135 v 5.03821 h 10.90405 v -5.03821 c -5.8e-4,-3.01126 -2.44199,-5.45191 -5.45306,-5.45135 z"
         sodipodi:nodetypes="sccccs" /><path
         style="fill:none;stroke:#355d7e;stroke-width:10.9048;stroke-linecap:round;stroke-linejoin:round;stroke-dasharray:none;stroke-opacity:1;paint-order:stroke fill markers"
         id="path13"
         sodipodi:type="arc"
         sodipodi:cx="273.5798"
         sodipodi:cy="145.42294"
         sodipodi:rx="18.049486"
         sodipodi:ry="18.049486"
         sodipodi:start="6.278035"
         sodipodi:end="3.0567573"
         sodipodi:arc-type="arc"
         d="m 291.62905,145.32998 a 18.049486,18.049486 0 0 1 -17.23742,18.12418 18.049486,18.049486 0 0 1 -18.7964,-16.50182"
         sodipodi:open="true" /><g
         id="g16"
         transform="translate(-0.56665,-2.1e-4)"><path
           id="path15"
           style="color:#000000;fill:#355d7e;fill-opacity:1;stroke-width:1.00002;stroke-linecap:round;stroke-linejoin:round;-inkscape-stroke:none;paint-order:stroke fill markers"
           d="m 275.8528,127.37723 c -5.8e-4,-3.0106 -2.44089,-5.45103 -5.45135,-5.45161 h -2.60606 v 10.90528 h 2.60606 c 3.01126,-5.8e-4 5.45191,-2.44226 5.45135,-5.45367 z"
           sodipodi:nodetypes="sccccs" /><path
           id="path16"
           style="color:#000000;fill:#355d7e;fill-opacity:1;stroke-width:0.719281;stroke-linejoin:bevel;-inkscape-stroke:none;paint-order:stroke fill markers"
           d="m 265.03466,121.92562 v 10.90528 h 3.65961 v -10.90528 z" /></g></g><text
       xml:space="preserve"
       style="font-style:normal;font-variant:normal;font-weight:bold;font-stretch:normal;font-size:24.0649px;line-height:1.25;font-family:Comfortaa;-inkscape-font-specification:'Comfortaa Bold';font-variant-ligatures:normal;font-variant-caps:normal;font-variant-numeric:normal;font-variant-east-asian:normal;letter-spacing:0px;fill:#000000;fill-opacity:1;stroke-width:2.18771"
       x="58.50251"
       y="271.5528"
       id="text38"><tspan
         sodipodi:role="line"
         style="font-style:normal;font-variant:normal;font-weight:bold;font-stretch:normal;font-size:24.0649px;line-height:1.25;font-family:Comfortaa;-inkscape-font-specification:'Comfortaa Bold';font-variant-ligatures:normal;font-variant-caps:normal;font-variant-numeric:normal;font-variant-east-asian:normal;letter-spacing:0px;fill:#000000;fill-opacity:1;stroke-width:2.18771"
         x="58.50251"
         y="271.5528"
         id="tspan38">edwin albert phiri</tspan></text><rect
       style="opacity:1;fill:#355d7e;fill-opacity:1;stroke:none;stroke-width:4.20687;stroke-linecap:round;stroke-linejoin:round;stroke-miterlimit:4;stroke-dasharray:none;stroke-dashoffset:0;stroke-opacity:1;paint-order:stroke fill markers"
       id="rect40"
       width="338.66666"
       height="338.66666"
       x="0"
       y="0"
       ry="0"
       transform="translate(-406.91784)"
       inkscape:export-filename="Logo White.png"
       inkscape:export-xdpi="200"
       inkscape:export-ydpi="200" /><g
       id="g98"
       transform="translate(-406.91784)"><g
         id="g48"
         transform="matrix(2.5615885,0,0,2.5615885,-486.99576,-195.08594)"
         style="fill:#ffffff"><path
           id="path40"
           style="opacity:1;fill:#ffffff;stroke-width:11.8274;stroke-linejoin:bevel;paint-order:stroke fill markers"
           d="m 298.39143,131.58331 a 5.4523811,5.4523811 0 0 1 -5.26214,5.47714 5.4523811,5.4523811 0 0 1 -5.63117,-5.09696 5.4523811,5.4523811 0 0 1 4.92729,-5.78023 5.4523811,5.4523811 0 0 1 5.92416,4.75326" /><path
           style="color:#000000;fill:#ffffff;fill-opacity:1;stroke-width:1.00003;stroke-linejoin:bevel;-inkscape-stroke:none;paint-order:stroke fill markers"
           d="m 246.72168,132.83048 -18.27151,9e-5 6.52592,-5.26845 2.45544,-5.6365 9.29015,-9e-5 z"
           id="path41"
           sodipodi:nodetypes="cccccc" /><path
           id="path42"
           style="color:#000000;fill:#ffffff;fill-opacity:1;stroke-width:0.999978;stroke-linejoin:bevel;-inkscape-stroke:none;paint-order:stroke fill markers"
           d="m 255.5938,100.15992 c -3.01026,5.8e-4 -5.45032,2.44086 -5.4509,5.4513 v 0.86928 4.16908 43.8485 l 6.73697,-1.85214 4.16705,-7.12914 v -34.86722 -4.16908 -0.86928 c -5.8e-4,-3.01125 -2.44205,-5.45186 -5.45312,-5.4513 z" /><path
           style="color:#000000;fill:#ffffff;stroke-linecap:round;stroke-linejoin:round;-inkscape-stroke:none;paint-order:stroke fill markers"
           d="m 237.54492,121.92578 c -9.50089,0 -18.10008,5.75281 -21.72461,14.53516 -3.62453,8.78235 -1.58698,18.92613 5.14844,25.62695 6.73542,6.70082 16.89073,8.68729 25.6543,5.01758 8.76356,-3.66971 14.47276,-12.29807 14.42382,-21.79883 a 5.4524002,5.4524002 0 0 0 -5.48046,-5.42383 5.4524002,5.4524002 0 0 0 -5.42383,5.48047 c 0.0263,5.11662 -3.01282,9.70728 -7.73242,11.68359 -4.71961,1.97632 -10.12265,0.91927 -13.75,-2.68945 -3.62735,-3.60871 -4.71175,-9.0066 -2.75977,-13.73633 1.95198,-4.72972 6.52784,-7.79101 11.64453,-7.79101 a 5.4524002,5.4524002 0 0 0 5.45313,-5.45117 5.4524002,5.4524002 0 0 0 -5.45313,-5.45313 z"
           id="path43" /><path
           style="color:#000000;fill:#ffffff;stroke-linecap:round;stroke-linejoin:round;-inkscape-stroke:none;paint-order:stroke fill markers"
           d="m 291.60156,139.87695 a 5.4524002,5.4524002 0 0 0 -5.42578,5.48047 c 0.0351,6.81881 -5.2173,12.34369 -12.0293,12.65039 -6.812,0.3067 -12.54135,-4.7232 -13.11914,-11.51758 a 5.4524002,5.4524002 0 0 0 -5.89453,-4.9707 5.4524002,5.4524002 0 0 0 -4.9707,5.89453 c 1.06414,12.51344 11.92872,22.05119 24.47461,21.48633 12.54589,-0.56486 22.50999,-11.03922 22.44531,-23.59766 a 5.4524002,5.4524002 0 0 0 -5.48047,-5.42578 z"
           id="path45" /><path
           id="path46"
           style="color:#000000;fill:#ffffff;fill-opacity:1;stroke-width:1.00002;stroke-linecap:round;stroke-linejoin:round;-inkscape-stroke:none;paint-order:stroke fill markers"
           d="m 264.46796,121.9254 v 10.90524 h 2.76076 0.89893 1.70709 c 3.01126,-5.8e-4 5.45207,-2.44212 5.45151,-5.45353 -5.8e-4,-3.0106 -2.44105,-5.45113 -5.45151,-5.45171 h -1.70709 -0.89893 z" /></g><text
         xml:space="preserve"
         style="font-style:normal;font-variant:normal;font-weight:bold;font-stretch:normal;font-size:24.0649px;line-height:1.25;font-family:Comfortaa;-inkscape-font-specification:'Comfortaa Bold';font-variant-ligatures:normal;font-variant-caps:normal;font-variant-numeric:normal;font-variant-east-asian:normal;letter-spacing:0px;fill:#ffffff;fill-opacity:1;stroke-width:2.18771"
         x="58.50251"
         y="271.5528"
         id="text48"><tspan
           sodipodi:role="line"
           style="font-style:normal;font-variant:normal;font-weight:bold;font-stretch:normal;font-size:24.0649px;line-height:1.25;font-family:Comfortaa;-inkscape-font-specification:'Comfortaa Bold';font-variant-ligatures:normal;font-variant-caps:normal;font-variant-numeric:normal;font-variant-east-asian:normal;letter-spacing:0px;fill:#ffffff;fill-opacity:1;stroke-width:2.18771"
           x="58.50251"
           y="271.5528"
           id="tspan48">edwin albert phiri</tspan></text></g><rect
       style="opacity:1;fill:#355d7e;fill-opacity:1;stroke:none;stroke-width:4.11662;stroke-linecap:round;stroke-linejoin:round;stroke-miterlimit:4;stroke-dasharray:none;stroke-dashoffset:0;stroke-opacity:1;paint-order:stroke fill markers"
       id="rect49"
       width="942.64014"
       height="338.66666"
       x="1404.7614"
       y="-3.2470705e-06"
       inkscape:export-filename="Blue card.png"
       inkscape:export-xdpi="200"
       inkscape:export-ydpi="200" /><path
       style="fill:none;stroke:#ffffff;stroke-width:3.90955;stroke-linecap:round;stroke-linejoin:round;stroke-dasharray:none;stroke-opacity:1"
       d="M 1776.1816,47.826291 V 290.84036"
       id="path57" /><text
       xml:space="preserve"
       style="font-style:normal;font-variant:normal;font-weight:normal;font-stretch:normal;font-size:100.862px;line-height:1.25;font-family:Comfortaa;-inkscape-font-specification:Comfortaa;font-variant-ligatures:normal;font-variant-caps:normal;font-variant-numeric:normal;font-variant-east-asian:normal;letter-spacing:0px;fill:#ffffff;fill-opacity:1;stroke-width:9.16924"
       x="1824.3041"
       y="145.68118"
       id="text58"><tspan
         sodipodi:role="line"
         style="font-style:normal;font-variant:normal;font-weight:normal;font-stretch:normal;font-size:100.862px;line-height:1.25;font-family:Comfortaa;-inkscape-font-specification:Comfortaa;font-variant-ligatures:normal;font-variant-caps:normal;font-variant-numeric:normal;font-variant-east-asian:normal;letter-spacing:0px;fill:#ffffff;fill-opacity:1;stroke-width:9.16924"
         x="1824.3041"
         y="145.68118"
         id="tspan57">Edwin A</tspan><tspan
         sodipodi:role="line"
         style="font-style:normal;font-variant:normal;font-weight:normal;font-stretch:normal;font-size:100.862px;line-height:1.25;font-family:Comfortaa;-inkscape-font-specification:Comfortaa;font-variant-ligatures:normal;font-variant-caps:normal;font-variant-numeric:normal;font-variant-east-asian:normal;letter-spacing:0px;fill:#ffffff;fill-opacity:1;stroke-width:9.16924"
         x="1824.3041"
         y="271.75867"
         id="tspan58">Phiri ZM</tspan></text><g
       id="g63"
       transform="matrix(2.5615885,0,0,2.5615885,953.61722,-175.30867)"
       style="fill:#ffffff"><path
         id="path58"
         style="opacity:1;fill:#ffffff;stroke-width:11.8274;stroke-linejoin:bevel;paint-order:stroke fill markers"
         d="m 298.39143,131.58331 a 5.4523811,5.4523811 0 0 1 -5.26214,5.47714 5.4523811,5.4523811 0 0 1 -5.63117,-5.09696 5.4523811,5.4523811 0 0 1 4.92729,-5.78023 5.4523811,5.4523811 0 0 1 5.92416,4.75326" /><path
         style="color:#000000;fill:#ffffff;fill-opacity:1;stroke-width:1.00003;stroke-linejoin:bevel;-inkscape-stroke:none;paint-order:stroke fill markers"
         d="m 246.72168,132.83048 -18.27151,9e-5 6.52592,-5.26845 2.45544,-5.6365 9.29015,-9e-5 z"
         id="path59"
         sodipodi:nodetypes="cccccc" /><path
         id="path60"
         style="color:#000000;fill:#ffffff;fill-opacity:1;stroke-width:0.999978;stroke-linejoin:bevel;-inkscape-stroke:none;paint-order:stroke fill markers"
         d="m 255.5938,100.15992 c -3.01026,5.8e-4 -5.45032,2.44086 -5.4509,5.4513 v 0.86928 4.16908 43.8485 l 6.73697,-1.85214 4.16705,-7.12914 v -34.86722 -4.16908 -0.86928 c -5.8e-4,-3.01125 -2.44205,-5.45186 -5.45312,-5.4513 z" /><path
         style="color:#000000;fill:#ffffff;stroke-linecap:round;stroke-linejoin:round;-inkscape-stroke:none;paint-order:stroke fill markers"
         d="m 237.54492,121.92578 c -9.50089,0 -18.10008,5.75281 -21.72461,14.53516 -3.62453,8.78235 -1.58698,18.92613 5.14844,25.62695 6.73542,6.70082 16.89073,8.68729 25.6543,5.01758 8.76356,-3.66971 14.47276,-12.29807 14.42382,-21.79883 a 5.4524002,5.4524002 0 0 0 -5.48046,-5.42383 5.4524002,5.4524002 0 0 0 -5.42383,5.48047 c 0.0263,5.11662 -3.01282,9.70728 -7.73242,11.68359 -4.71961,1.97632 -10.12265,0.91927 -13.75,-2.68945 -3.62735,-3.60871 -4.71175,-9.0066 -2.75977,-13.73633 1.95198,-4.72972 6.52784,-7.79101 11.64453,-7.79101 a 5.4524002,5.4524002 0 0 0 5.45313,-5.45117 5.4524002,5.4524002 0 0 0 -5.45313,-5.45313 z"
         id="path61" /><path
         style="color:#000000;fill:#ffffff;stroke-linecap:round;stroke-linejoin:round;-inkscape-stroke:none;paint-order:stroke fill markers"
         d="m 291.60156,139.87695 a 5.4524002,5.4524002 0 0 0 -5.42578,5.48047 c 0.0351,6.81881 -5.2173,12.34369 -12.0293,12.65039 -6.812,0.3067 -12.54135,-4.7232 -13.11914,-11.51758 a 5.4524002,5.4524002 0 0 0 -5.89453,-4.9707 5.4524002,5.4524002 0 0 0 -4.9707,5.89453 c 1.06414,12.51344 11.92872,22.05119 24.47461,21.48633 12.54589,-0.56486 22.50999,-11.03922 22.44531,-23.59766 a 5.4524002,5.4524002 0 0 0 -5.48047,-5.42578 z"
         id="path62" /><path
         id="path63"
         style="color:#000000;fill:#ffffff;fill-opacity:1;stroke-width:1.00002;stroke-linecap:round;stroke-linejoin:round;-inkscape-stroke:none;paint-order:stroke fill markers"
         d="m 264.46796,121.9254 v 10.90524 h 2.76076 0.89893 1.70709 c 3.01126,-5.8e-4 5.45207,-2.44212 5.45151,-5.45353 -5.8e-4,-3.0106 -2.44105,-5.45113 -5.45151,-5.45171 h -1.70709 -0.89893 z" /></g><g
       id="g106"
       inkscape:export-filename="Card PNG.png"
       inkscape:export-xdpi="200"
       inkscape:export-ydpi="200"><g
         id="g75"
         transform="matrix(2.5615885,0,0,2.5615885,-70.693191,433.23297)"
         style="fill:#355d7e;fill-opacity:1"><path
           id="path70"
           style="opacity:1;fill:#355d7e;fill-opacity:1;stroke-width:11.8274;stroke-linejoin:bevel;paint-order:stroke fill markers"
           d="m 298.39143,131.58331 a 5.4523811,5.4523811 0 0 1 -5.26214,5.47714 5.4523811,5.4523811 0 0 1 -5.63117,-5.09696 5.4523811,5.4523811 0 0 1 4.92729,-5.78023 5.4523811,5.4523811 0 0 1 5.92416,4.75326" /><path
           style="color:#000000;fill:#355d7e;fill-opacity:1;stroke-width:1.00003;stroke-linejoin:bevel;-inkscape-stroke:none;paint-order:stroke fill markers"
           d="m 246.72168,132.83048 -18.27151,9e-5 6.52592,-5.26845 2.45544,-5.6365 9.29015,-9e-5 z"
           id="path71"
           sodipodi:nodetypes="cccccc" /><path
           id="path72"
           style="color:#000000;fill:#355d7e;fill-opacity:1;stroke-width:0.999978;stroke-linejoin:bevel;-inkscape-stroke:none;paint-order:stroke fill markers"
           d="m 255.5938,100.15992 c -3.01026,5.8e-4 -5.45032,2.44086 -5.4509,5.4513 v 0.86928 4.16908 43.8485 l 6.73697,-1.85214 4.16705,-7.12914 v -34.86722 -4.16908 -0.86928 c -5.8e-4,-3.01125 -2.44205,-5.45186 -5.45312,-5.4513 z" /><path
           style="color:#000000;fill:#355d7e;fill-opacity:1;stroke-linecap:round;stroke-linejoin:round;-inkscape-stroke:none;paint-order:stroke fill markers"
           d="m 237.54492,121.92578 c -9.50089,0 -18.10008,5.75281 -21.72461,14.53516 -3.62453,8.78235 -1.58698,18.92613 5.14844,25.62695 6.73542,6.70082 16.89073,8.68729 25.6543,5.01758 8.76356,-3.66971 14.47276,-12.29807 14.42382,-21.79883 a 5.4524002,5.4524002 0 0 0 -5.48046,-5.42383 5.4524002,5.4524002 0 0 0 -5.42383,5.48047 c 0.0263,5.11662 -3.01282,9.70728 -7.73242,11.68359 -4.71961,1.97632 -10.12265,0.91927 -13.75,-2.68945 -3.62735,-3.60871 -4.71175,-9.0066 -2.75977,-13.73633 1.95198,-4.72972 6.52784,-7.79101 11.64453,-7.79101 a 5.4524002,5.4524002 0 0 0 5.45313,-5.45117 5.4524002,5.4524002 0 0 0 -5.45313,-5.45313 z"
           id="path73" /><path
           style="color:#000000;fill:#355d7e;fill-opacity:1;stroke-linecap:round;stroke-linejoin:round;-inkscape-stroke:none;paint-order:stroke fill markers"
           d="m 291.60156,139.87695 a 5.4524002,5.4524002 0 0 0 -5.42578,5.48047 c 0.0351,6.81881 -5.2173,12.34369 -12.0293,12.65039 -6.812,0.3067 -12.54135,-4.7232 -13.11914,-11.51758 a 5.4524002,5.4524002 0 0 0 -5.89453,-4.9707 5.4524002,5.4524002 0 0 0 -4.9707,5.89453 c 1.06414,12.51344 11.92872,22.05119 24.47461,21.48633 12.54589,-0.56486 22.50999,-11.03922 22.44531,-23.59766 a 5.4524002,5.4524002 0 0 0 -5.48047,-5.42578 z"
           id="path74" /><path
           id="path75"
           style="color:#000000;fill:#355d7e;fill-opacity:1;stroke-width:1.00002;stroke-linecap:round;stroke-linejoin:round;-inkscape-stroke:none;paint-order:stroke fill markers"
           d="m 264.46796,121.9254 v 10.90524 h 2.76076 0.89893 1.70709 c 3.01126,-5.8e-4 5.45207,-2.44212 5.45151,-5.45353 -5.8e-4,-3.0106 -2.44105,-5.45113 -5.45151,-5.45171 h -1.70709 -0.89893 z" /></g><path
         style="fill:none;stroke:#355d7e;stroke-width:3.90955;stroke-linecap:round;stroke-linejoin:round;stroke-dasharray:none;stroke-opacity:1"
         d="M 751.87114,656.36793 V 899.382"
         id="path76" /><text
         xml:space="preserve"
         style="font-style:normal;font-variant:normal;font-weight:normal;font-stretch:normal;font-size:100.862px;line-height:1.25;font-family:Comfortaa;-inkscape-font-specification:Comfortaa;font-variant-ligatures:normal;font-variant-caps:normal;font-variant-numeric:normal;font-variant-east-asian:normal;letter-spacing:0px;fill:#355d7e;fill-opacity:1;stroke-width:9.16924"
         x="799.99365"
         y="754.22284"
         id="text77"><tspan
           sodipodi:role="line"
           style="font-style:normal;font-variant:normal;font-weight:normal;font-stretch:normal;font-size:100.862px;line-height:1.25;font-family:Comfortaa;-inkscape-font-specification:Comfortaa;font-variant-ligatures:normal;font-variant-caps:normal;font-variant-numeric:normal;font-variant-east-asian:normal;letter-spacing:0px;fill:#355d7e;fill-opacity:1;stroke-width:9.16924"
           x="799.99365"
           y="754.22284"
           id="tspan76">Edwin A</tspan><tspan
           sodipodi:role="line"
           style="font-style:normal;font-variant:normal;font-weight:normal;font-stretch:normal;font-size:100.862px;line-height:1.25;font-family:Comfortaa;-inkscape-font-specification:Comfortaa;font-variant-ligatures:normal;font-variant-caps:normal;font-variant-numeric:normal;font-variant-east-asian:normal;letter-spacing:0px;fill:#355d7e;fill-opacity:1;stroke-width:9.16924"
           x="799.99365"
           y="880.30029"
           id="tspan77">Phiri ZM</tspan></text></g><g
       id="g105"
       inkscape:export-filename="Logo blue PNG.png"
       inkscape:export-xdpi="200"
       inkscape:export-ydpi="200"><g
         id="g85"
         transform="matrix(2.5615885,0,0,2.5615885,-486.99576,413.4557)"><path
           style="font-variation-settings:normal;opacity:1;fill:#355d7e;fill-opacity:1;stroke:none;stroke-width:11.8274;stroke-linecap:butt;stroke-linejoin:bevel;stroke-miterlimit:4;stroke-dasharray:none;stroke-dashoffset:0;stroke-opacity:1;paint-order:stroke fill markers"
           id="path77"
           sodipodi:type="arc"
           sodipodi:cx="292.93912"
           sodipodi:cy="131.61139"
           sodipodi:rx="5.4523811"
           sodipodi:ry="5.4523811"
           sodipodi:start="6.278035"
           sodipodi:end="6.1590917"
           sodipodi:open="true"
           sodipodi:arc-type="arc"
           d="m 298.39143,131.58331 a 5.4523811,5.4523811 0 0 1 -5.26214,5.47714 5.4523811,5.4523811 0 0 1 -5.63117,-5.09696 5.4523811,5.4523811 0 0 1 4.92729,-5.78023 5.4523811,5.4523811 0 0 1 5.92416,4.75326" /><path
           style="color:#000000;fill:#355d7e;fill-opacity:1;stroke-width:1.00003;stroke-linejoin:bevel;-inkscape-stroke:none;paint-order:stroke fill markers"
           d="m 246.72168,132.83048 -18.27151,9e-5 6.52592,-5.26845 2.45544,-5.6365 9.29015,-9e-5 z"
           id="path78"
           sodipodi:nodetypes="cccccc" /><path
           style="color:#000000;fill:#355d7e;fill-opacity:1;stroke-width:0.999978;stroke-linejoin:bevel;-inkscape-stroke:none;paint-order:stroke fill markers"
           d="m 250.14282,106.4805 v 48.01755 l 6.73695,-1.85204 4.1671,-7.12912 V 106.4805 Z"
           id="path79"
           sodipodi:nodetypes="cccccc" /><path
           style="fill:none;stroke:#355d7e;stroke-width:10.9048;stroke-linecap:round;stroke-linejoin:round;stroke-dasharray:none;stroke-opacity:1;paint-order:stroke fill markers"
           id="path80"
           sodipodi:type="arc"
           sodipodi:cx="237.5451"
           sodipodi:cy="145.42751"
           sodipodi:rx="18.049486"
           sodipodi:ry="18.049486"
           sodipodi:start="6.278035"
           sodipodi:end="4.712389"
           sodipodi:arc-type="arc"
           d="m 255.59435,145.33455 a 18.049486,18.049486 0 0 1 -11.07764,16.7417 18.049486,18.049486 0 0 1 -19.70161,-3.85301 18.049486,18.049486 0 0 1 -3.95443,-19.6815 18.049486,18.049486 0 0 1 16.68443,-11.16372"
           sodipodi:open="true" /><path
           id="path81"
           style="color:#000000;fill:#355d7e;fill-opacity:1;stroke-width:0.999965;stroke-linecap:round;stroke-linejoin:round;-inkscape-stroke:none;paint-order:stroke fill markers"
           d="m 255.59381,100.15996 c -3.01026,5.8e-4 -5.45041,2.4409 -5.45099,5.45135 v 5.03821 h 10.90405 v -5.03821 c -5.8e-4,-3.01126 -2.44199,-5.45191 -5.45306,-5.45135 z"
           sodipodi:nodetypes="sccccs" /><path
           style="fill:none;stroke:#355d7e;stroke-width:10.9048;stroke-linecap:round;stroke-linejoin:round;stroke-dasharray:none;stroke-opacity:1;paint-order:stroke fill markers"
           id="path82"
           sodipodi:type="arc"
           sodipodi:cx="273.5798"
           sodipodi:cy="145.42294"
           sodipodi:rx="18.049486"
           sodipodi:ry="18.049486"
           sodipodi:start="6.278035"
           sodipodi:end="3.0567573"
           sodipodi:arc-type="arc"
           d="m 291.62905,145.32998 a 18.049486,18.049486 0 0 1 -17.23742,18.12418 18.049486,18.049486 0 0 1 -18.7964,-16.50182"
           sodipodi:open="true" /><g
           id="g84"
           transform="translate(-0.56665,-2.1e-4)"><path
             id="path83"
             style="color:#000000;fill:#355d7e;fill-opacity:1;stroke-width:1.00002;stroke-linecap:round;stroke-linejoin:round;-inkscape-stroke:none;paint-order:stroke fill markers"
             d="m 275.8528,127.37723 c -5.8e-4,-3.0106 -2.44089,-5.45103 -5.45135,-5.45161 h -2.60606 v 10.90528 h 2.60606 c 3.01126,-5.8e-4 5.45191,-2.44226 5.45135,-5.45367 z"
             sodipodi:nodetypes="sccccs" /><path
             id="path84"
             style="color:#000000;fill:#355d7e;fill-opacity:1;stroke-width:0.719281;stroke-linejoin:bevel;-inkscape-stroke:none;paint-order:stroke fill markers"
             d="m 265.03466,121.92562 v 10.90528 h 3.65961 v -10.90528 z" /></g></g><text
         xml:space="preserve"
         style="font-style:normal;font-variant:normal;font-weight:bold;font-stretch:normal;font-size:24.0649px;line-height:1.25;font-family:Comfortaa;-inkscape-font-specification:'Comfortaa Bold';font-variant-ligatures:normal;font-variant-caps:normal;font-variant-numeric:normal;font-variant-east-asian:normal;letter-spacing:0px;fill:#000000;fill-opacity:1;stroke-width:2.18771"
         x="58.50251"
         y="880.09442"
         id="text85"><tspan
           sodipodi:role="line"
           style="font-style:normal;font-variant:normal;font-weight:bold;font-stretch:normal;font-size:24.0649px;line-height:1.25;font-family:Comfortaa;-inkscape-font-specification:'Comfortaa Bold';font-variant-ligatures:normal;font-variant-caps:normal;font-variant-numeric:normal;font-variant-east-asian:normal;letter-spacing:0px;fill:#000000;fill-opacity:1;stroke-width:2.18771"
           x="58.50251"
           y="880.09442"
           id="tspan85">edwin albert phiri</tspan></text></g><g
       id="g107"
       inkscape:export-filename="Blue card PNG.png"
       inkscape:export-xdpi="200"
       inkscape:export-ydpi="200"><path
         style="fill:none;stroke:#ffffff;stroke-width:3.90955;stroke-linecap:round;stroke-linejoin:round;stroke-dasharray:none;stroke-opacity:1"
         d="M 1776.1816,656.36793 V 899.382"
         id="path91" /><text
         xml:space="preserve"
         style="font-style:normal;font-variant:normal;font-weight:normal;font-stretch:normal;font-size:100.862px;line-height:1.25;font-family:Comfortaa;-inkscape-font-specification:Comfortaa;font-variant-ligatures:normal;font-variant-caps:normal;font-variant-numeric:normal;font-variant-east-asian:normal;letter-spacing:0px;fill:#ffffff;fill-opacity:1;stroke-width:9.16924"
         x="1824.3041"
         y="754.22284"
         id="text92"><tspan
           sodipodi:role="line"
           style="font-style:normal;font-variant:normal;font-weight:normal;font-stretch:normal;font-size:100.862px;line-height:1.25;font-family:Comfortaa;-inkscape-font-specification:Comfortaa;font-variant-ligatures:normal;font-variant-caps:normal;font-variant-numeric:normal;font-variant-east-asian:normal;letter-spacing:0px;fill:#ffffff;fill-opacity:1;stroke-width:9.16924"
           x="1824.3041"
           y="754.22284"
           id="tspan91">Edwin A</tspan><tspan
           sodipodi:role="line"
           style="font-style:normal;font-variant:normal;font-weight:normal;font-stretch:normal;font-size:100.862px;line-height:1.25;font-family:Comfortaa;-inkscape-font-specification:Comfortaa;font-variant-ligatures:normal;font-variant-caps:normal;font-variant-numeric:normal;font-variant-east-asian:normal;letter-spacing:0px;fill:#ffffff;fill-opacity:1;stroke-width:9.16924"
           x="1824.3041"
           y="880.30029"
           id="tspan92">Phiri ZM</tspan></text><g
         id="g97"
         transform="matrix(2.5615885,0,0,2.5615885,953.61722,433.23297)"
         style="fill:#ffffff"><path
           id="path92"
           style="opacity:1;fill:#ffffff;stroke-width:11.8274;stroke-linejoin:bevel;paint-order:stroke fill markers"
           d="m 298.39143,131.58331 a 5.4523811,5.4523811 0 0 1 -5.26214,5.47714 5.4523811,5.4523811 0 0 1 -5.63117,-5.09696 5.4523811,5.4523811 0 0 1 4.92729,-5.78023 5.4523811,5.4523811 0 0 1 5.92416,4.75326" /><path
           style="color:#000000;fill:#ffffff;fill-opacity:1;stroke-width:1.00003;stroke-linejoin:bevel;-inkscape-stroke:none;paint-order:stroke fill markers"
           d="m 246.72168,132.83048 -18.27151,9e-5 6.52592,-5.26845 2.45544,-5.6365 9.29015,-9e-5 z"
           id="path93"
           sodipodi:nodetypes="cccccc" /><path
           id="path94"
           style="color:#000000;fill:#ffffff;fill-opacity:1;stroke-width:0.999978;stroke-linejoin:bevel;-inkscape-stroke:none;paint-order:stroke fill markers"
           d="m 255.5938,100.15992 c -3.01026,5.8e-4 -5.45032,2.44086 -5.4509,5.4513 v 0.86928 4.16908 43.8485 l 6.73697,-1.85214 4.16705,-7.12914 v -34.86722 -4.16908 -0.86928 c -5.8e-4,-3.01125 -2.44205,-5.45186 -5.45312,-5.4513 z" /><path
           style="color:#000000;fill:#ffffff;stroke-linecap:round;stroke-linejoin:round;-inkscape-stroke:none;paint-order:stroke fill markers"
           d="m 237.54492,121.92578 c -9.50089,0 -18.10008,5.75281 -21.72461,14.53516 -3.62453,8.78235 -1.58698,18.92613 5.14844,25.62695 6.73542,6.70082 16.89073,8.68729 25.6543,5.01758 8.76356,-3.66971 14.47276,-12.29807 14.42382,-21.79883 a 5.4524002,5.4524002 0 0 0 -5.48046,-5.42383 5.4524002,5.4524002 0 0 0 -5.42383,5.48047 c 0.0263,5.11662 -3.01282,9.70728 -7.73242,11.68359 -4.71961,1.97632 -10.12265,0.91927 -13.75,-2.68945 -3.62735,-3.60871 -4.71175,-9.0066 -2.75977,-13.73633 1.95198,-4.72972 6.52784,-7.79101 11.64453,-7.79101 a 5.4524002,5.4524002 0 0 0 5.45313,-5.45117 5.4524002,5.4524002 0 0 0 -5.45313,-5.45313 z"
           id="path95" /><path
           style="color:#000000;fill:#ffffff;stroke-linecap:round;stroke-linejoin:round;-inkscape-stroke:none;paint-order:stroke fill markers"
           d="m 291.60156,139.87695 a 5.4524002,5.4524002 0 0 0 -5.42578,5.48047 c 0.0351,6.81881 -5.2173,12.34369 -12.0293,12.65039 -6.812,0.3067 -12.54135,-4.7232 -13.11914,-11.51758 a 5.4524002,5.4524002 0 0 0 -5.89453,-4.9707 5.4524002,5.4524002 0 0 0 -4.9707,5.89453 c 1.06414,12.51344 11.92872,22.05119 24.47461,21.48633 12.54589,-0.56486 22.50999,-11.03922 22.44531,-23.59766 a 5.4524002,5.4524002 0 0 0 -5.48047,-5.42578 z"
           id="path96" /><path
           id="path97"
           style="color:#000000;fill:#ffffff;fill-opacity:1;stroke-width:1.00002;stroke-linecap:round;stroke-linejoin:round;-inkscape-stroke:none;paint-order:stroke fill markers"
           d="m 264.46796,121.9254 v 10.90524 h 2.76076 0.89893 1.70709 c 3.01126,-5.8e-4 5.45207,-2.44212 5.45151,-5.45353 -5.8e-4,-3.0106 -2.44105,-5.45113 -5.45151,-5.45171 h -1.70709 -0.89893 z" /></g></g><g
       id="g104"
       transform="translate(-406.91784,588.76476)"
       inkscape:export-filename="Logo White PNG.png"
       inkscape:export-xdpi="200"
       inkscape:export-ydpi="200"><g
         id="g103"
         transform="matrix(2.5615885,0,0,2.5615885,-486.99576,-195.08594)"
         style="fill:#ffffff"><path
           id="path98"
           style="opacity:1;fill:#ffffff;stroke-width:11.8274;stroke-linejoin:bevel;paint-order:stroke fill markers"
           d="m 298.39143,131.58331 a 5.4523811,5.4523811 0 0 1 -5.26214,5.47714 5.4523811,5.4523811 0 0 1 -5.63117,-5.09696 5.4523811,5.4523811 0 0 1 4.92729,-5.78023 5.4523811,5.4523811 0 0 1 5.92416,4.75326" /><path
           style="color:#000000;fill:#ffffff;fill-opacity:1;stroke-width:1.00003;stroke-linejoin:bevel;-inkscape-stroke:none;paint-order:stroke fill markers"
           d="m 246.72168,132.83048 -18.27151,9e-5 6.52592,-5.26845 2.45544,-5.6365 9.29015,-9e-5 z"
           id="path99"
           sodipodi:nodetypes="cccccc" /><path
           id="path100"
           style="color:#000000;fill:#ffffff;fill-opacity:1;stroke-width:0.999978;stroke-linejoin:bevel;-inkscape-stroke:none;paint-order:stroke fill markers"
           d="m 255.5938,100.15992 c -3.01026,5.8e-4 -5.45032,2.44086 -5.4509,5.4513 v 0.86928 4.16908 43.8485 l 6.73697,-1.85214 4.16705,-7.12914 v -34.86722 -4.16908 -0.86928 c -5.8e-4,-3.01125 -2.44205,-5.45186 -5.45312,-5.4513 z" /><path
           style="color:#000000;fill:#ffffff;stroke-linecap:round;stroke-linejoin:round;-inkscape-stroke:none;paint-order:stroke fill markers"
           d="m 237.54492,121.92578 c -9.50089,0 -18.10008,5.75281 -21.72461,14.53516 -3.62453,8.78235 -1.58698,18.92613 5.14844,25.62695 6.73542,6.70082 16.89073,8.68729 25.6543,5.01758 8.76356,-3.66971 14.47276,-12.29807 14.42382,-21.79883 a 5.4524002,5.4524002 0 0 0 -5.48046,-5.42383 5.4524002,5.4524002 0 0 0 -5.42383,5.48047 c 0.0263,5.11662 -3.01282,9.70728 -7.73242,11.68359 -4.71961,1.97632 -10.12265,0.91927 -13.75,-2.68945 -3.62735,-3.60871 -4.71175,-9.0066 -2.75977,-13.73633 1.95198,-4.72972 6.52784,-7.79101 11.64453,-7.79101 a 5.4524002,5.4524002 0 0 0 5.45313,-5.45117 5.4524002,5.4524002 0 0 0 -5.45313,-5.45313 z"
           id="path101" /><path
           style="color:#000000;fill:#ffffff;stroke-linecap:round;stroke-linejoin:round;-inkscape-stroke:none;paint-order:stroke fill markers"
           d="m 291.60156,139.87695 a 5.4524002,5.4524002 0 0 0 -5.42578,5.48047 c 0.0351,6.81881 -5.2173,12.34369 -12.0293,12.65039 -6.812,0.3067 -12.54135,-4.7232 -13.11914,-11.51758 a 5.4524002,5.4524002 0 0 0 -5.89453,-4.9707 5.4524002,5.4524002 0 0 0 -4.9707,5.89453 c 1.06414,12.51344 11.92872,22.05119 24.47461,21.48633 12.54589,-0.56486 22.50999,-11.03922 22.44531,-23.59766 a 5.4524002,5.4524002 0 0 0 -5.48047,-5.42578 z"
           id="path102" /><path
           id="path103"
           style="color:#000000;fill:#ffffff;fill-opacity:1;stroke-width:1.00002;stroke-linecap:round;stroke-linejoin:round;-inkscape-stroke:none;paint-order:stroke fill markers"
           d="m 264.46796,121.9254 v 10.90524 h 2.76076 0.89893 1.70709 c 3.01126,-5.8e-4 5.45207,-2.44212 5.45151,-5.45353 -5.8e-4,-3.0106 -2.44105,-5.45113 -5.45151,-5.45171 h -1.70709 -0.89893 z" /></g><text
         xml:space="preserve"
         style="font-style:normal;font-variant:normal;font-weight:bold;font-stretch:normal;font-size:24.0649px;line-height:1.25;font-family:Comfortaa;-inkscape-font-specification:'Comfortaa Bold';font-variant-ligatures:normal;font-variant-caps:normal;font-variant-numeric:normal;font-variant-east-asian:normal;letter-spacing:0px;fill:#ffffff;fill-opacity:1;stroke-width:2.18771"
         x="58.50251"
         y="271.5528"
         id="text103"><tspan
           sodipodi:role="line"
           style="font-style:normal;font-variant:normal;font-weight:bold;font-stretch:normal;font-size:24.0649px;line-height:1.25;font-family:Comfortaa;-inkscape-font-specification:'Comfortaa Bold';font-variant-ligatures:normal;font-variant-caps:normal;font-variant-numeric:normal;font-variant-east-asian:normal;letter-spacing:0px;fill:#ffffff;fill-opacity:1;stroke-width:2.18771"
           x="58.50251"
           y="271.5528"
           id="tspan103">edwin albert phiri</tspan></text></g><text
       xml:space="preserve"
       style="font-style:normal;font-variant:normal;font-weight:bold;font-stretch:normal;font-size:24.0649px;line-height:1.25;font-family:Comfortaa;-inkscape-font-specification:'Comfortaa Bold';font-variant-ligatures:normal;font-variant-caps:normal;font-variant-numeric:normal;font-variant-east-asian:normal;letter-spacing:0px;fill:#000000;fill-opacity:1;stroke-width:2.18771"
       x="58.50251"
       y="-19.018795"
       id="text107"><tspan
         sodipodi:role="line"
         style="font-style:normal;font-variant:normal;font-weight:bold;font-stretch:normal;font-size:24.0649px;line-height:1.25;font-family:Comfortaa;-inkscape-font-specification:'Comfortaa Bold';font-variant-ligatures:normal;font-variant-caps:normal;font-variant-numeric:normal;font-variant-east-asian:normal;letter-spacing:0px;fill:#000000;fill-opacity:1;stroke-width:2.18771"
         x="58.50251"
         y="-19.018795"
         id="tspan107">ORIGINAL VECTOR</tspan></text></g></svg>
